<svg width="932" height="285" viewBox="0 0 932 285" fill="none" xmlns="http://www.w3.org/2000/svg">
<g clip-path="url(#clip0_2_4)">
<path d="M284.96 0H0V284.96H284.96V0Z" fill="#8716E8"/>
<path d="M430.46 140.78C428.675 138.975 426.582 137.502 424.28 136.43C421.39 135.064 418.344 134.056 415.21 133.43L410.01 132.25C408.676 131.991 407.363 131.637 406.08 131.19C405.126 130.867 404.218 130.42 403.38 129.86C402.733 129.44 402.201 128.866 401.83 128.19C401.498 127.542 401.35 126.816 401.4 126.09C401.412 125.186 401.706 124.309 402.24 123.58C402.891 122.765 403.767 122.16 404.76 121.84C406.173 121.364 407.66 121.144 409.15 121.19C411.95 121.19 414.05 121.78 415.43 122.95C416.13 123.566 416.697 124.318 417.096 125.16C417.495 126.003 417.718 126.918 417.75 127.85H434.34C434.442 123.954 433.37 120.117 431.264 116.838C429.158 113.559 426.115 110.988 422.53 109.46C418.312 107.631 413.746 106.74 409.15 106.85C404.542 106.756 399.965 107.635 395.72 109.43C392.074 110.947 388.911 113.43 386.57 116.61C384.359 119.747 383.216 123.513 383.31 127.35C383.31 132.35 384.91 136.35 388.16 139.26C391.41 142.17 395.87 144.26 401.53 145.46L407.9 146.84C409.828 147.241 411.718 147.806 413.55 148.53C414.691 148.956 415.718 149.64 416.55 150.53C417.156 151.258 417.492 152.173 417.5 153.12C417.49 154.139 417.138 155.125 416.5 155.92C415.752 156.807 414.772 157.468 413.67 157.83C412.17 158.334 410.592 158.567 409.01 158.52C407.068 158.578 405.135 158.238 403.33 157.52C401.817 156.891 400.526 155.825 399.62 154.46C398.696 152.954 398.196 151.227 398.17 149.46H381.65C381.65 154.853 382.797 159.273 385.09 162.72C387.417 166.212 390.777 168.89 394.7 170.38C399.338 172.121 404.266 172.963 409.22 172.86C413.953 172.973 418.666 172.193 423.11 170.56C426.68 169.262 429.784 166.934 432.03 163.87C434.17 160.7 435.271 156.943 435.18 153.12C435.177 150.806 434.778 148.509 434 146.33C433.226 144.23 432.02 142.315 430.46 140.71" fill="black"/>
<path d="M482.09 132.89H459.12V107.74H441.78V172.14H459.12V146.98H482.09V172.14H499.43V107.74H482.09V132.89Z" fill="black"/>
<path d="M507.67 172.13H553.59V158.05H525.01V146.99H551.35V132.88H525.01V121.82H553.71V107.74H507.67V172.13Z" fill="black"/>
<path d="M610.58 141.28C612.688 137.766 613.731 133.715 613.58 129.62C613.688 125.498 612.65 121.426 610.58 117.86C608.616 114.593 605.733 111.977 602.29 110.34C598.412 108.554 594.178 107.678 589.91 107.78H562.33V172.18H579.67V150.87H585.67L596.88 172.13H615.73L602.73 148.04C605.927 146.565 608.647 144.223 610.58 141.28ZM579.67 121.69H585.79C587.57 121.646 589.343 121.931 591.02 122.53C592.371 123.023 593.537 123.921 594.36 125.1C595.187 126.458 595.591 128.032 595.52 129.62C595.596 131.177 595.191 132.721 594.36 134.04C593.544 135.204 592.372 136.071 591.02 136.51C589.335 137.073 587.565 137.337 585.79 137.29H579.67V121.69Z" fill="black"/>
<path d="M638.31 107.74H620.97V172.13H664.15V158.05H638.31V107.74Z" fill="black"/>
<path d="M712.16 110.64C707.282 108.155 701.885 106.86 696.41 106.86C690.935 106.86 685.538 108.155 680.66 110.64C675.941 113.196 672.064 117.066 669.5 121.78C666.74 126.7 665.36 132.74 665.36 139.9C665.36 147.06 666.74 153.087 669.5 157.98C672.063 162.708 675.939 166.594 680.66 169.17C685.534 171.667 690.933 172.97 696.41 172.97C701.887 172.97 707.285 171.667 712.16 169.17C716.888 166.598 720.775 162.721 723.36 158C726.12 153.08 727.5 147.033 727.5 139.86C727.5 132.687 726.12 126.66 723.36 121.78C720.776 117.061 716.888 113.187 712.16 110.62V110.64ZM708.16 149.68C707.31 152.083 705.756 154.174 703.7 155.68C701.515 157.014 699.005 157.72 696.445 157.72C693.885 157.72 691.375 157.014 689.19 155.68C687.131 154.176 685.576 152.085 684.73 149.68C683.642 146.537 683.131 143.224 683.22 139.9C683.132 136.586 683.643 133.282 684.73 130.15C685.575 127.745 687.13 125.653 689.19 124.15C691.372 122.809 693.884 122.1 696.445 122.1C699.006 122.1 701.517 122.809 703.7 124.15C705.757 125.655 707.311 127.747 708.16 130.15C710.173 136.504 710.173 143.326 708.16 149.68Z" fill="black"/>
<path d="M755.42 124.21C757.591 122.733 760.175 121.984 762.8 122.07C764.317 122.047 765.826 122.287 767.26 122.78C768.49 123.196 769.618 123.866 770.573 124.747C771.527 125.627 772.286 126.698 772.8 127.89C773.354 129.158 773.692 130.51 773.8 131.89H791.4C791.146 128.186 790.178 124.566 788.55 121.23C787.065 118.213 784.963 115.542 782.38 113.39C779.742 111.213 776.711 109.563 773.45 108.53C769.855 107.389 766.101 106.829 762.33 106.87C756.894 106.788 751.526 108.089 746.73 110.65C742.026 113.211 738.161 117.076 735.6 121.78C732.86 126.7 731.487 132.74 731.48 139.9C731.473 147.06 732.807 153.09 735.48 157.99C737.976 162.713 741.8 166.603 746.48 169.18C750.797 171.372 755.52 172.648 760.354 172.931C765.187 173.213 770.027 172.494 774.57 170.82C780.95 168.328 786.132 163.486 789.05 157.29C790.303 154.676 791.076 151.858 791.33 148.97L773.73 148.84C773.551 150.144 773.145 151.406 772.53 152.57C771.957 153.65 771.175 154.605 770.23 155.38C769.256 156.182 768.135 156.787 766.93 157.16C765.534 157.587 764.08 157.793 762.62 157.77C760.074 157.836 757.567 157.139 755.42 155.77C753.313 154.291 751.716 152.194 750.85 149.77C749.709 146.598 749.176 143.239 749.28 139.87C749.2 136.609 749.722 133.362 750.82 130.29C751.689 127.837 753.274 125.702 755.37 124.16" fill="black"/>
<path d="M832.79 136.41L854.37 107.74H834.16L814.95 133.78H814.07V107.74H796.72V172.13H814.07V155.53L819.81 147.98L834.16 172.13H854.88L832.79 136.41Z" fill="black"/>
<path d="M875.23 107.33V109.94H884.85V132.3H888.18V109.94H897.77V107.33H875.23Z" fill="black"/>
<path d="M925.37 107.33L916.56 129.35H916.14L907.36 107.33H901.51V132.3H904.8V110.4H905.21L913.97 132.3H918.74L927.5 110.4H927.91V132.3H931.2V107.33H925.37Z" fill="black"/>
<path d="M262.09 73.72L229.09 74.3H227.66V74.36C221.083 74.771 214.819 77.3164 209.82 81.61L185.82 100.61C185.7 100.7 185.56 100.76 185.43 100.86L119.64 152.78L119.14 124.62C119.111 122.977 118.431 121.413 117.25 120.271C116.069 119.13 114.483 118.503 112.84 118.53L44.0099 119.7C43.1961 119.714 42.3931 119.889 41.6469 120.214C40.9008 120.539 40.226 121.008 39.6612 121.594C39.0965 122.18 38.6529 122.872 38.3558 123.63C38.0587 124.387 37.914 125.196 37.9299 126.01L38.7299 171.95L38.8299 177.86L38.8999 181.64V182.45C38.898 183.355 38.9447 184.26 39.0399 185.16C39.0399 185.4 39.0399 185.62 39.1099 185.84C39.1799 186.06 39.1099 186.29 39.1699 186.53C39.2475 187.491 39.3844 188.446 39.5799 189.39C39.7585 190.451 39.9922 191.503 40.2799 192.54C40.8801 194.848 41.8097 197.057 43.0399 199.1C43.8644 200.583 44.7864 202.009 45.7999 203.37C47.8481 206.269 50.3982 208.779 53.3299 210.78C59.7999 215.85 69.8299 219.03 81.0699 218.78C92.3099 218.53 102.42 214.99 108.69 209.6C109.431 209.078 110.136 208.507 110.8 207.89C113.771 205.384 116.599 202.713 119.27 199.89C121.71 197.37 123.85 194.99 125.42 193.11L186.49 127.78C186.827 127.413 187.129 127.015 187.39 126.59L200.39 112.73L215.23 96.78L218.36 93.44C223.833 88.2999 231.023 85.3804 238.53 85.25L252.77 85L262.29 84.83C263.767 84.8035 265.173 84.1912 266.199 83.1279C267.225 82.0645 267.786 80.6373 267.76 79.16C267.733 77.6827 267.121 76.2765 266.058 75.2507C264.994 74.2249 263.567 73.6635 262.09 73.69V73.72Z" fill="white"/>
</g>
<defs>
<clipPath id="clip0_2_4">
<rect width="931.2" height="284.96" fill="white"/>
</clipPath>
</defs>
</svg>
