<svg width="400" height="123" viewBox="0 0 400 123" fill="none" xmlns="http://www.w3.org/2000/svg">
<g clip-path="url(#clip0_8_2)">
<path d="M122.415 0H0V122.415H122.415V0Z" fill="#8716E8"/>
<path d="M184.946 60.3805C184.285 59.7188 183.457 59.0571 182.299 58.5608C181.141 58.0645 179.983 57.5682 178.329 57.2374L176.013 56.7411C175.352 56.5757 174.855 56.4103 174.359 56.2448C173.863 56.0794 173.532 55.914 173.201 55.7486C172.87 55.5831 172.705 55.2523 172.539 55.0869C172.374 54.756 172.374 54.5906 172.374 54.2597C172.374 53.9289 172.539 53.4326 172.705 53.1017C172.87 52.7709 173.366 52.6055 173.863 52.2746C174.359 52.1092 175.021 51.9438 175.682 51.9438C176.84 51.9438 177.833 52.2746 178.329 52.7709C178.991 53.2672 179.322 53.9289 179.322 54.9214H186.435C186.435 53.1017 185.939 51.6129 185.112 50.1241C184.285 48.8007 182.961 47.6427 181.307 46.981C179.653 46.1538 177.833 45.823 175.517 45.823C173.366 45.823 171.381 46.1538 169.727 46.981C168.073 47.6427 166.749 48.8007 165.757 50.1241C164.764 51.4475 164.268 52.9363 164.433 54.756C164.433 56.9065 165.095 58.5608 166.584 59.8842C167.907 61.2076 169.892 62.0347 172.374 62.531L175.186 63.1927C176.179 63.3582 177.006 63.689 177.668 63.8544C178.329 64.1853 178.66 64.3507 178.991 64.6816C179.322 65.0124 179.322 65.3433 179.322 65.8395C179.322 66.3358 179.156 66.6667 178.825 66.9975C178.495 67.3284 178.164 67.6592 177.668 67.8246C177.171 67.9901 176.51 68.1555 175.682 68.1555C174.69 68.1555 173.863 67.9901 173.201 67.6592C172.539 67.3284 172.043 66.9975 171.547 66.3358C171.216 65.8395 170.885 65.0124 170.885 64.1853H163.772C163.772 66.5012 164.268 68.3209 165.261 69.8098C166.253 71.2986 167.577 72.4566 169.396 73.1183C171.216 73.78 173.201 74.1108 175.682 74.1108C177.998 74.1108 179.983 73.78 181.638 73.1183C183.292 72.4566 184.615 71.464 185.443 70.306C186.27 68.9826 186.766 67.4938 186.766 65.6741C186.766 64.6816 186.601 63.689 186.27 62.6964C186.104 62.0347 185.608 61.2076 184.946 60.3805Z" fill="white"/>
<path d="M207.113 57.072H197.188V46.3193H189.744V73.9454H197.188V63.1927H207.113V73.9454H214.558V46.3193H207.113V57.072Z" fill="white"/>
<path d="M218.031 73.9454H237.717V67.8246H225.476V63.1927H236.725V57.072H225.476V52.2746H237.883V46.3193H218.031V73.9454Z" fill="white"/>
<path d="M262.2 60.7114C263.027 59.3879 263.524 57.7337 263.524 55.7486C263.524 53.7635 263.027 52.1092 262.2 50.6204C261.373 49.297 260.215 48.139 258.561 47.3119C257.072 46.4847 255.252 46.1539 253.267 46.1539H241.522V73.78H248.966V64.6816H251.613L256.41 73.78H264.516L258.892 63.3582C260.215 62.8619 261.373 61.8693 262.2 60.7114ZM248.966 52.2746H251.613C252.44 52.2746 253.267 52.4401 253.929 52.6055C254.591 52.7709 255.087 53.2672 255.418 53.7635C255.749 54.2597 255.914 54.9214 255.914 55.7486C255.914 56.5757 255.749 57.2374 255.418 57.5683C255.087 58.0645 254.591 58.3954 253.929 58.5608C253.267 58.7262 252.606 58.8917 251.613 58.8917H248.966V52.2746Z" fill="white"/>
<path d="M274.111 46.3193H266.667V73.9454H285.194V67.8246H274.111V46.3193Z" fill="white"/>
<path d="M305.873 47.4773C303.888 46.3193 301.572 45.823 299.09 45.823C296.609 45.823 294.293 46.3193 292.308 47.4773C290.323 48.6352 288.668 50.1241 287.51 52.2746C286.352 54.4251 285.691 56.9065 285.691 60.0496C285.691 63.1927 286.352 65.6741 287.51 67.8246C288.668 69.9752 290.323 71.464 292.308 72.622C294.293 73.78 296.609 74.2763 299.09 74.2763C301.572 74.2763 303.888 73.78 305.873 72.622C307.858 71.464 309.512 69.9752 310.67 67.8246C311.828 65.6741 312.49 63.1927 312.49 60.0496C312.49 56.9065 311.828 54.4251 310.67 52.2746C309.512 50.1241 307.858 48.6352 305.873 47.4773ZM304.218 64.3507C303.722 65.5087 303.226 66.3358 302.233 66.9975C301.406 67.6592 300.414 67.8246 299.09 67.8246C297.932 67.8246 296.774 67.4938 295.947 66.9975C295.12 66.3358 294.458 65.5087 293.962 64.3507C293.466 63.1927 293.3 61.8693 293.3 60.2151C293.3 58.5608 293.466 57.2374 293.962 56.0794C294.458 54.9214 294.955 54.0943 295.947 53.4326C296.774 52.7709 297.767 52.6055 299.09 52.6055C300.248 52.6055 301.406 52.9363 302.233 53.4326C303.06 54.0943 303.722 54.9214 304.218 56.0794C304.715 57.2374 304.88 58.5608 304.88 60.2151C304.88 61.7039 304.549 63.1927 304.218 64.3507Z" fill="white"/>
<path d="M324.4 53.4326C325.227 52.7709 326.385 52.44 327.543 52.44C328.205 52.44 328.867 52.6055 329.529 52.7709C330.025 52.9363 330.521 53.2672 331.017 53.598C331.348 53.9289 331.679 54.4251 332.01 54.9214C332.175 55.4177 332.341 56.0794 332.506 56.5757H340.116C339.95 54.9214 339.62 53.2672 338.958 51.9438C338.296 50.6203 337.469 49.4624 336.311 48.6352C335.153 47.6427 333.995 46.981 332.506 46.4847C331.017 45.9884 329.529 45.823 327.709 45.823C325.227 45.823 323.077 46.3193 320.926 47.4773C318.941 48.6352 317.287 50.1241 316.129 52.2746C314.971 54.4251 314.309 56.9065 314.309 60.0496C314.309 63.1927 314.806 65.6741 315.964 67.8246C317.122 69.9752 318.776 71.464 320.761 72.622C322.746 73.78 325.062 74.2763 327.543 74.2763C329.529 74.2763 331.348 73.9454 332.837 73.2837C334.326 72.622 335.649 71.7949 336.642 70.8023C337.634 69.8098 338.462 68.6518 338.958 67.4938C339.454 66.3358 339.785 65.0124 339.95 63.8544H332.341C332.175 64.5161 332.01 65.0124 331.845 65.5087C331.514 66.005 331.348 66.3358 330.852 66.6667C330.521 66.9975 330.025 67.3284 329.363 67.4938C328.867 67.6592 328.205 67.8246 327.543 67.8246C326.385 67.8246 325.227 67.4938 324.4 66.9975C323.573 66.5012 322.911 65.5087 322.415 64.3507C321.919 63.1927 321.754 61.8693 321.754 60.0496C321.754 58.3954 321.919 57.072 322.415 55.914C322.911 54.9214 323.573 53.9289 324.4 53.4326Z" fill="white"/>
<path d="M357.651 58.5608L366.915 46.3193H358.313L350.041 57.4028H349.711V46.3193H342.266V73.9454H349.711V66.8321L352.192 63.5236L358.313 73.9454H367.246L357.651 58.5608Z" fill="white"/>
<path d="M112.821 31.5963L98.5939 31.7618H97.9322C94.9545 31.9272 92.3077 33.0852 90.3226 34.7394L79.9008 42.8453C79.9008 42.8453 79.7353 42.8453 79.7353 43.0107L51.2821 65.0124V52.9363C51.2821 51.4475 50.1241 50.2895 48.6353 50.2895L19.024 50.6203C17.5352 50.6203 16.3772 51.7783 16.3772 53.2671L16.5426 72.9528V75.4342V77.0885V77.4193C16.5426 77.7502 16.5426 78.081 16.5426 78.5773C16.5426 78.7427 16.5426 78.7427 16.5426 78.9082C16.5426 79.0736 16.5426 79.0736 16.5426 79.239C16.5426 79.7353 16.7081 80.2316 16.7081 80.397C16.7081 80.8933 16.8735 81.2241 17.0389 81.7204C17.3698 82.8784 17.7006 83.8709 18.1969 84.5326C18.5277 85.1944 18.8586 85.6906 19.3549 86.3523C20.3474 87.8412 21.5054 88.8337 22.498 89.4954C25.3102 91.646 29.6113 93.1348 34.4086 93.1348C39.206 93.1348 43.6725 91.646 46.3193 89.33C46.6502 89.1646 46.981 88.8337 47.3119 88.6683C48.139 88.0066 49.4624 86.6832 50.9512 85.1944C51.9438 84.2018 52.9363 83.0438 53.598 82.3821L80.0662 54.5906C80.2316 54.4251 80.397 54.2597 80.397 54.0943L86.0215 48.1389L92.6386 41.3565L93.962 39.8676C96.2779 37.7171 99.2556 36.3937 102.73 36.3937H108.85H112.986C114.309 36.3937 115.302 35.2357 115.302 33.9123C115.302 32.7543 114.144 31.5963 112.821 31.5963Z" fill="white"/>
</g>
<defs>
<clipPath id="clip0_8_2">
<rect width="400" height="122.415" fill="white"/>
</clipPath>
</defs>
</svg>
