<svg width="67" height="67" viewBox="0 0 67 67" fill="none" xmlns="http://www.w3.org/2000/svg">
<path d="M67 0H0V67H67V0Z" fill="#8716E8"/>
<path d="M61.748 17.293L53.9615 17.3835H53.5994C51.9696 17.4741 50.521 18.1078 49.4345 19.0132L43.7305 23.4497C43.7305 23.4497 43.6399 23.4497 43.6399 23.5403L28.0669 35.5822V28.9727C28.0669 28.1578 27.4332 27.524 26.6183 27.524L10.4115 27.7051C9.59667 27.7051 8.96289 28.3389 8.96289 29.1538L9.05343 39.9281V41.2862V42.1916V42.3727C9.05343 42.5538 9.05343 42.7349 9.05343 43.0065C9.05343 43.097 9.05343 43.097 9.05343 43.1876C9.05343 43.2781 9.05343 43.2781 9.05343 43.3686C9.05343 43.6403 9.14397 43.9119 9.14397 44.0024C9.14397 44.274 9.23451 44.4551 9.32505 44.7268C9.50613 45.3605 9.68722 45.9038 9.95884 46.2659C10.1399 46.6281 10.321 46.8997 10.5926 47.2619C11.1359 48.0767 11.7696 48.62 12.3129 48.9822C13.8521 50.1592 16.2061 50.974 18.8318 50.974C21.4575 50.974 23.9021 50.1592 25.3507 48.8916C25.5318 48.8011 25.7129 48.62 25.894 48.5295C26.3467 48.1673 27.071 47.443 27.8859 46.6281C28.4291 46.0849 28.9723 45.4511 29.3345 45.0889L43.821 29.8781C43.9115 29.7876 44.0021 29.697 44.0021 29.6065L47.0805 26.347L50.7021 22.6349L51.4264 21.82C52.694 20.643 54.3237 19.9186 56.225 19.9186H59.575H61.8386C62.5629 19.9186 63.1061 19.2849 63.1061 18.5605C63.1061 17.9268 62.4723 17.293 61.748 17.293Z" fill="white"/>
</svg>
