<?xml version="1.0" standalone="no"?>
<!DOCTYPE svg PUBLIC "-//W3C//DTD SVG 20010904//EN"
 "http://www.w3.org/TR/2001/REC-SVG-20010904/DTD/svg10.dtd">
<svg version="1.0" xmlns="http://www.w3.org/2000/svg"
 width="700.000000pt" height="700.000000pt" viewBox="0 0 700.000000 700.000000"
 preserveAspectRatio="xMidYMid meet">
<metadata>
Created by potrace 1.14, written by Peter Selinger 2001-2017
</metadata>
<g transform="translate(0.000000,700.000000) scale(0.100000,-0.100000)"
fill="#000000" stroke="none">
<path d="M0 3515 l0 -3485 3483 2 3482 3 3 3483 2 3482 -3485 0 -3485 0 0
-3485z m6479 1670 c74 -38 99 -109 65 -182 -33 -69 -26 -67 -449 -74 -362 -5
-383 -6 -450 -28 -90 -30 -167 -69 -231 -117 -62 -48 -538 -540 -884 -915
-200 -217 -1698 -1784 -1766 -1849 -223 -209 -444 -302 -749 -317 -325 -16
-645 96 -838 292 -75 77 -155 204 -195 312 l-36 98 -7 790 c-6 531 -5 800 2
822 13 41 69 91 111 97 18 3 417 10 887 15 920 11 890 12 938 -40 41 -45 43
-67 43 -430 0 -192 3 -349 6 -349 5 0 1245 958 1952 1508 183 143 354 271 380
285 26 14 83 38 127 53 72 25 98 28 265 34 102 4 324 7 493 8 253 2 313 -1
336 -13z"/>
</g>
</svg>
